<svg xmlns="http://www.w3.org/2000/svg" width="77" height="63" fill="none">
                                        <path fill="currentColor" d="M1.502 61.844h.486c.418 0 .746-.127.985-.382s.358-.597.358-1.026c0-.43-.12-.772-.358-1.027-.239-.255-.567-.383-.985-.383h-.486v2.818Zm.486-3.646c.717 0 1.305.206 1.766.621.46.415.69.953.69 1.614 0 .66-.23 1.198-.69 1.615-.46.417-1.05.625-1.766.625H.408v-4.475h1.58ZM11.948 58.185v.83h-1.625v.962h1.433v.83h-1.433v1.038h1.625v.828h-2.72v-4.488h2.72M18.507 58.996a.505.505 0 0 0-.336.108c-.088.072-.131.176-.131.313 0 .136.04.245.12.328a.797.797 0 0 0 .317.191c.131.044.276.087.436.127.16.04.319.09.476.147.158.057.303.129.433.213.129.085.235.206.316.36.08.157.122.343.122.559 0 .378-.155.701-.464.973-.31.269-.716.404-1.223.404-.505 0-.912-.122-1.221-.364-.31-.242-.463-.586-.463-1.033h1.164c.03.358.212.536.55.536a.524.524 0 0 0 .37-.124.409.409 0 0 0 .135-.316.424.424 0 0 0-.121-.313.872.872 0 0 0-.317-.19 5.085 5.085 0 0 0-.435-.131c-.16-.04-.319-.09-.477-.15a2.357 2.357 0 0 1-.432-.214.906.906 0 0 1-.316-.357 1.177 1.177 0 0 1-.121-.55c0-.418.155-.752.466-1.002.311-.25.71-.376 1.193-.376.484 0 .876.11 1.175.328.297.219.454.564.466 1.036h-1.19a.602.602 0 0 0-.157-.373.457.457 0 0 0-.335-.13M25.217 62.673V58.2h1.094v4.474h-1.094ZM31.77 62.065c-.446-.431-.668-.978-.668-1.642 0-.662.222-1.209.667-1.641.446-.431.992-.647 1.635-.647.5 0 .943.132 1.331.396.388.263.66.628.813 1.096h-1.306c-.17-.327-.443-.491-.818-.491-.376 0-.67.117-.886.35-.216.234-.324.547-.324.937 0 .392.108.705.324.938.215.234.504.35.866.35.261 0 .473-.064.637-.194a.935.935 0 0 0 .33-.52h-1.267v-.828h2.444v.829c-.082.408-.306.788-.672 1.14-.175.17-.391.308-.65.415-.257.106-.532.16-.822.16-.643 0-1.189-.216-1.635-.648M43.27 58.185h1.093v4.488H43.27l-1.83-2.824v2.824h-1.094v-4.488h1.095l1.83 2.824v-2.824ZM58.257 58.199h1.095v4.474h-1.095v-1.855h-1.733v1.855H55.43V58.2h1.094v1.791h1.733v-1.791ZM64.387 60.87V58.2h1.094v2.67c0 .268.065.474.198.619.132.143.325.216.581.216.256 0 .453-.073.59-.216.136-.145.204-.351.204-.619V58.2h1.094v2.67c0 .395-.093.736-.278 1.023a1.67 1.67 0 0 1-.705.628 2.155 2.155 0 0 1-.924.198c-.52 0-.96-.161-1.317-.485-.358-.322-.537-.778-.537-1.364ZM74.272 61.845h.825a.533.533 0 0 0 .37-.134.473.473 0 0 0 .147-.37.503.503 0 0 0-.14-.375.496.496 0 0 0-.365-.141h-.837v1.02Zm0-2.818v.97h.716c.157 0 .285-.04.38-.122.096-.08.144-.2.144-.36 0-.16-.048-.28-.144-.363a.557.557 0 0 0-.38-.125h-.716Zm-1.094-.828h1.95c.457 0 .82.11 1.09.331.272.22.407.5.407.842 0 .505-.297.847-.89 1.026.304.042.545.167.724.377.179.207.269.451.269.732 0 .357-.132.64-.394.85-.262.212-.628.316-1.097.316h-2.06V58.2M37.262 29.966c.4-.322.455-.616.39-1.085-.294-1.03-.545-2.141-.774-3.189-1.477-7.093-2.073-2.818-3.16 1.945-2.405 6.044-.415 6.868 3.544 2.329Zm9.594-8.372c.715-.69 1.484-1.188 2.372-1.511.242-.139.585-.167.88-.112.427.017.825.182 1.334.246-.018.423-.371.663-.658.883-1.558 1.419-2.847 3.04-4.301 4.567-.27.285-.39.598-.28.985.166.579.221 1.258.388 1.837.065.47.175.855-.289 1.196-.287.22-.195.543-.065.992.185-.33.195-.543.287-.707.407-.048.5.762.12 1.149-.047.082-.11.1-.093.165-.065.018-.11.101-.204.267.462 1.608.96 3.344 1.375 5.035.13.45.176.855.24 1.324.046 1.379.544 2.627 1.108 3.858.491.975.833 1.92 1.193 2.93.203.71.47 1.397.675 2.105.147.515.23 1.048.33 1.645l-.749-.412a.918.918 0 0 1-.12.313c-.046.083-.01.211.027.34-.5.212-1.222.14-1 .912-.418.257-.863.175-1.178.056-.48-.21-.944-.356-1.314-.668-1.314-1.158-2.34-2.534-3.19-4.03-.075-.258-.297-.543.036-.847.064-.018-.046-.404-.101-.597l-.833-1.433c-1.619-2.46-2.607-5.171-3.614-7.945-.157-.303-.314-.607-.49-.974-.222.203-.463.342-.62.525-.91 1.233-2.16 2.007-3.376 2.91a51.58 51.58 0 0 1-3.048 1.845c-.991.7-1.474 1.95-1.753 2.935-.548 2.244-1.495 4.323-2.08 6.438-.185.33-.343.515-.714.69-1.455.554.795 1.305-.696 1.242-3.159 1.458-2.323-1.007-3.953-2.282.65-1.646 1.364-3.311 2.097-4.912.4-.81.817-1.555 1.235-2.3.649-1.16-.093.165.436-1.169-.25-.137-.482-.21-.732-.348-.546-.193-1.027-.402-1.573-.595-.417-.229-.639-.513-.639-1 .398-.323.843-.24 1.306-.095.676.156 1.399.228 2.121.3.149.027.454-.13.547-.295.491-.975.9-1.996 1.392-2.97.074-.231.084-.443.177-.608 1.196-2.43 1.764-5.096 2.58-7.626.948-3.053 1.812-6.152 2.76-9.205.417-1.234.511-2.373.244-3.55-.278-1.452-.405-2.876-.535-4.3-.08-2.483.246-5.01.674-7.43.185-.818.362-.938 1.131-.95C36.77.396 37.798.31 38.844.29c.343-.028.704.008 1.038.19.666.368 1.332.734 1.952 1.184.288.266.527.615.685.918.73 1.322 1.007 2.775 1.155 4.263.276 1.94.533 3.814.745 5.772.055.193.064.468.139.726.405 1.415.469 2.858.403 4.338-.094 1.14.155 2.252.274 3.401.064.47.194.919.324 1.37l.166.091c.399-.322.797-.644 1.131-.949"></path>
                                    </svg>