<svg xmlns="http://www.w3.org/2000/svg" width="125" height="19" fill="none">
                                        <path fill="currentColor" d="M10.351.124h3.363v.124c-.675 0-.648.179-.648 1.02v7.277c0 .938.11 1.158.786 1.158v.124H9.648v-.124c.648 0 .703-.22.703-1.158V.495L6.781 9.95h-.124L2.192 1.653v4.522c0 1.777.51 3.528 2.108 3.528v.124H0v-.124c1.476 0 2.068-1.722 2.068-3.528V1.447C1.53.496 1.089.276.704.248V.124H4.63l3.336 6.34L10.35.124ZM22.945.123v.11c-.578 0-.895.015-.895 1.228v6.808c0 1.31.317 1.434.895 1.434v.124h-4.549v-.124c.58 0 .896-.124.896-1.434V1.461c0-1.213-.302-1.227-.896-1.227v-.11h4.55ZM36.464 6.52l.138 2.783c-.372.249-1.765.647-3.225.647-2.95 0-5.568-1.859-5.568-4.975C27.809 1.861 30.427 0 33.377 0c1.777 0 2.894.372 3.225.634l-.138 2.785h-.11C35.94.566 34.382.124 33.376.124c-1.53 0-2.178 1.075-2.178 4.851 0 3.79.69 4.852 2.178 4.852.937 0 2.509-.565 2.976-3.308h.11ZM47.184 2.757c0-2.634-.358-2.509-1.971-2.509h-.427v4.976h.427c1.792 0 1.971.027 1.971-2.467Zm4.438 6.946v.124h-2.743c-.979 0-1.282-.62-1.612-3.184-.18-1.379-1.833-1.296-1.833-1.296h-.648V8.27c0 1.35.054 1.434.634 1.434v.124h-4.121v-.124c.592 0 .717-.028.717-1.434V1.461c0-.855-.11-1.227-.717-1.227v-.11h3.914c2.743 0 5.21.33 5.21 2.633 0 2.066-1.902 2.494-3.226 2.494 1.586 0 2.385.344 3.06 2.825.276 1.048 1.007 1.6 1.364 1.627ZM62.52 5.044c0-3.776-.054-4.92-1.68-4.92-1.64 0-1.709 1.144-1.709 4.92 0 3.79.069 4.783 1.709 4.783 1.626 0 1.68-.992 1.68-4.783Zm3.35 0c0 2.743-1.998 4.906-5.03 4.906s-5.031-2.163-5.031-4.906C55.809 2.315 57.808 0 60.84 0c3.032 0 5.03 2.315 5.03 5.044ZM85.026.123v.11c-.551 0-1.392.428-2.398 2.855l-2.413 6.74h-.495c-1.283-2.992-2.11-4.922-2.66-6.176l-2.206 6.175h-.496C70.884 1.71 70.706 1.35 70.706 1.35 70.237.248 70.044.262 69.686.234v-.11h4.3v.11c-.883 0-.18 1.6-.18 1.6l2.082 4.726 1.103-3.074c-.841-1.956-.924-2.136-.924-2.136-.469-1.102-.661-1.088-1.02-1.116v-.11h4.3v.11c-.881 0-.179 1.6-.179 1.6l2.067 4.74 1.24-3.486c.346-.979.042-2.854-1.363-2.854v-.11h3.914ZM91.652 3.928l-1.228 3.101h2.606l-1.378-3.101ZM93.043.123h.07c3.486 7.995 3.721 8.45 3.721 8.45.496 1.102.964 1.115 1.24 1.144v.11H93.25v-.11c1.103 0 .276-1.614.276-1.614l-.441-.95h-2.701c-.276.634-.028 2.564 1.626 2.564v.11h-3.97v-.11c.414-.029 1.158-.138 2.22-2.564l2.783-7.03ZM111.606.123v.11c-.592 0-1.474.428-2.549 2.855l-2.716 6.74h-.399c-3.694-8.12-3.887-8.478-3.887-8.478-.496-1.102-.703-1.088-1.089-1.116v-.11h4.59v.11c-.951 0-.194 1.6-.194 1.6l2.137 4.755 1.419-3.501c.414-1.021.166-2.854-1.488-2.854v-.11h4.176ZM124.173 7.125v2.702h-8.05v-.124c.579 0 .8-.827.8-1.764V2.026c0-.854-.193-1.792-.8-1.792v-.11h7.87v2.825h-.123c0-2.687-3.763-2.701-3.763-2.701h-.496v4.617h1.116c.014 0 1.474.041 1.626-1.627h.124v3.377h-.124c-.152-1.653-1.612-1.626-1.626-1.626h-1.116v4.714h.496s3.941.152 3.941-2.578h.125ZM33.187 15.135h.931v3.827h-.931v-1.586h-1.478v1.586h-.932v-3.827h.932v1.532h1.478v-1.532ZM39.221 17.61h.905l-.452-1.364-.453 1.363Zm1.352 1.352-.212-.644h-1.374l-.213.644h-.992l1.33-3.838h1.134l1.325 3.838h-.998ZM45.233 18.962v-3.827h.932v3.827h-.932ZM51.121 15.843v.921h.578a.45.45 0 0 0 .336-.124.454.454 0 0 0 .123-.33.44.44 0 0 0-.458-.467h-.579Zm0 1.63v1.489h-.931v-3.827h1.51c.442 0 .787.114 1.035.343.247.229.371.505.371.83 0 .221-.068.437-.202.647-.135.21-.354.36-.66.447l.938 1.56h-1.09l-.862-1.489h-.109ZM63.175 15.816a.437.437 0 0 0-.286.092.33.33 0 0 0-.112.268c0 .116.035.21.104.281.068.07.158.125.27.163.11.038.234.074.37.109.136.035.271.077.407.125.134.049.256.11.367.183a.8.8 0 0 1 .27.308c.069.134.103.292.103.477 0 .324-.131.6-.395.832-.263.231-.61.346-1.041.346-.43 0-.777-.104-1.042-.311-.262-.207-.394-.501-.394-.883h.992c.026.305.181.459.468.459.135 0 .24-.036.317-.108a.354.354 0 0 0 .114-.27.362.362 0 0 0-.103-.266.722.722 0 0 0-.27-.165 4.758 4.758 0 0 0-.37-.111 3.833 3.833 0 0 1-.407-.127 2.088 2.088 0 0 1-.368-.183.775.775 0 0 1-.27-.306.996.996 0 0 1-.103-.471c0-.357.133-.642.398-.856.265-.215.604-.322 1.017-.322.411 0 .746.094 1 .28.254.188.387.483.397.886h-1.014a.51.51 0 0 0-.133-.318.388.388 0 0 0-.286-.112ZM69.69 17.61h.904l-.452-1.364-.453 1.363Zm1.351 1.352-.213-.644h-1.373l-.213.644h-.992l1.33-3.838h1.134l1.325 3.838h-.998ZM75.702 15.135h.932v3.118h1.16v.709h-2.092v-3.827ZM83.99 17.838c.183-.199.275-.466.275-.8 0-.335-.092-.603-.275-.802-.183-.2-.43-.3-.736-.3-.308 0-.553.1-.736.3-.183.2-.275.467-.275.801 0 .335.092.602.275.801.183.201.428.3.736.3.307 0 .552-.099.736-.3Zm-2.127.606c-.379-.37-.57-.84-.57-1.407 0-.567.191-1.035.57-1.404a1.93 1.93 0 0 1 1.396-.553c.551 0 1.014.185 1.391.553.376.37.563.837.563 1.404s-.188 1.037-.566 1.407c-.378.37-.841.556-1.39.556a1.921 1.921 0 0 1-1.394-.556ZM91.51 15.124h.933v3.838h-.932l-1.56-2.415v2.415h-.932v-3.838h.932l1.56 2.415v-2.415Z"></path>
                                    </svg>