<svg xmlns="http://www.w3.org/2000/svg" width="74" height="20" fill="none">
                                        <path fill="currentColor" d="M3.875 3.874V5.44c.69-1.12 1.789-1.68 3.298-1.68 1.25 0 2.261.407 3.035 1.221.774.815 1.162 1.922 1.162 3.322v6.223H8.051V8.742c0-.687-.185-1.219-.556-1.594-.37-.375-.881-.563-1.532-.563-.65 0-1.161.188-1.532.563-.37.375-.556.907-.556 1.594v5.784H.538V3.874h3.337ZM20.64 11.148c.48-.459.722-1.107.722-1.948 0-.84-.241-1.485-.722-1.937-.482-.451-1.035-.678-1.66-.678-.624 0-1.177.23-1.659.687-.48.458-.721 1.108-.721 1.947 0 .84.24 1.487.721 1.938.482.452 1.035.678 1.66.678.624 0 1.177-.229 1.659-.687Zm-5.992 1.985c-.963-1.018-1.444-2.323-1.444-3.914 0-1.59.48-2.898 1.444-3.922.962-1.025 2.137-1.537 3.523-1.537 1.385 0 2.45.503 3.19 1.508V3.874H24.7v10.653h-3.338V12.98c-.807 1.12-1.887 1.68-3.24 1.68-1.353 0-2.512-.51-3.474-1.528ZM32.057 11.759h1.19v2.767H31.55c-1.224 0-2.17-.263-2.84-.792-.67-.528-1.005-1.434-1.005-2.72V6.585H26.69v-2.71h1.015V1.277h3.338v2.596h2.185v2.711h-2.185v4.43c0 .495.337.744 1.014.744ZM42.733 3.874h3.337v10.652h-3.337v-1.565c-.69 1.12-1.79 1.68-3.299 1.68-1.249 0-2.261-.407-3.035-1.222-.774-.814-1.16-1.921-1.16-3.322V3.875h3.316V9.66c0 .687.187 1.218.557 1.593.37.377.882.564 1.532.564s1.162-.188 1.532-.564c.37-.375.556-.906.556-1.593V3.874ZM52.139 3.874V5.86c.78-1.399 1.821-2.1 3.122-2.1v3.322h-.819c-.768 0-1.343.179-1.727.535-.384.356-.576.98-.576 1.87v5.04h-3.337V3.874h3.337ZM63.517 11.148c.48-.459.722-1.107.722-1.948 0-.84-.241-1.485-.722-1.937-.482-.451-1.034-.678-1.66-.678-.624 0-1.177.23-1.658.687-.481.458-.722 1.108-.722 1.947 0 .84.24 1.487.722 1.938.481.452 1.034.678 1.659.678s1.178-.229 1.659-.687Zm-5.992 1.985c-.963-1.018-1.444-2.323-1.444-3.914 0-1.59.481-2.898 1.444-3.922.963-1.025 2.137-1.537 3.524-1.537 1.385 0 2.449.503 3.19 1.508V3.874h3.338v10.653h-3.338V12.98c-.807 1.12-1.887 1.68-3.24 1.68-1.353 0-2.51-.51-3.474-1.528ZM70.309 14.526V.4h3.337v14.126h-3.337ZM4.135 16.391v3.205h-.538V17.4l-.999 2.195h-.372L1.222 17.4v2.195H.684V16.39h.58l1.15 2.513 1.145-2.513h.576ZM7.857 19.596V16.39h.538v3.205h-.538ZM14.272 16.387h.537v3.209h-.537l-1.617-2.393v2.393h-.537v-3.209h.537l1.617 2.388v-2.388ZM20.341 16.387v.41H19.07v.973H20.2v.405H19.07v1.01h1.273v.41h-1.81v-3.208h1.81ZM24.555 16.801v1.084h.594c.204 0 .357-.048.458-.143.1-.095.15-.228.15-.399 0-.17-.05-.304-.15-.398-.101-.095-.254-.144-.458-.144h-.594Zm0 1.495v1.3h-.536V16.39h1.13c.371 0 .657.09.858.27.2.18.301.408.301.685a.923.923 0 0 1-.2.58c-.133.173-.34.285-.615.337l.867 1.333h-.655l-.82-1.3h-.33ZM30.761 18.53h1.08l-.538-1.507-.542 1.507Zm1.462 1.066-.236-.655h-1.371l-.236.655h-.56l1.172-3.209h.623l1.173 3.209h-.565ZM36.313 16.391h.538v2.803h1.108v.402h-1.646V16.39ZM49.542 16.391h.575l-.97 3.205h-.609l-.688-2.426-.73 2.426-.603.004-.93-3.209h.571l.679 2.61.735-2.61h.603l.683 2.596.684-2.596ZM54.326 18.53h1.079l-.537-1.507-.542 1.507Zm1.46 1.066-.235-.655H54.18l-.235.655h-.561l1.173-3.209h.622l1.174 3.209h-.565ZM59.708 16.801v-.41h2.285v.41h-.87v2.795h-.538V16.8h-.877ZM67.362 16.387v.41h-1.273v.973h1.131v.405H66.09v1.01h1.273v.41h-1.81v-3.208h1.81ZM71.575 16.801v1.084h.594c.204 0 .356-.048.457-.143a.522.522 0 0 0 .15-.399c0-.17-.05-.304-.15-.398-.101-.095-.254-.144-.457-.144h-.594Zm0 1.495v1.3h-.537V16.39h1.13c.371 0 .657.09.858.27.201.18.302.408.302.685a.92.92 0 0 1-.2.58c-.134.173-.34.285-.615.337l.867 1.333h-.655l-.82-1.3h-.33Z"></path>
                                    </svg>