<svg xmlns="http://www.w3.org/2000/svg" width="77" height="27" fill="none">
                                        <path fill="currentColor" d="M6.08 3.034c-.723 0-1.319.144-1.787.434-.468.289-.702.73-.702 1.322 0 .579.234 1.027.702 1.344.468.303 1.462.633 2.98.991 1.532.359 2.682.861 3.448 1.509.78.647 1.17 1.605 1.17 2.872 0 1.254-.49 2.274-1.468 3.059-.98.785-2.263 1.178-3.853 1.178-2.327 0-4.391-.779-6.193-2.335l1.575-1.84c1.504 1.268 3.065 1.902 4.682 1.902.81 0 1.448-.166 1.916-.496.482-.345.723-.793.723-1.344 0-.564-.227-.998-.68-1.302-.44-.316-1.207-.599-2.3-.847-1.092-.261-1.922-.496-2.49-.702a5.893 5.893 0 0 1-1.51-.848c-.88-.647-1.32-1.64-1.32-2.975 0-1.337.497-2.363 1.49-3.08C3.47 1.147 4.712.782 6.187.782c.951 0 1.895.152 2.831.455.937.303 1.745.73 2.426 1.281l-1.34 1.84c-.44-.386-1.036-.703-1.788-.951a7.104 7.104 0 0 0-2.235-.372ZM16.958 12.292l-1.49 3.286h-2.682l6.556-14.445h2.681l6.556 14.445h-2.682l-1.49-3.286h-7.45Zm6.427-2.253-2.703-5.951-2.703 5.951h5.406ZM33.635 12.271c.681.772 1.604 1.157 2.767 1.157 1.164 0 2.086-.385 2.767-1.157.681-.771 1.022-1.819 1.022-3.141V1.133h2.511v8.1c0 2.08-.589 3.686-1.767 4.815-1.177 1.116-2.688 1.674-4.533 1.674-1.845 0-3.356-.558-4.533-1.674-1.178-1.13-1.767-2.734-1.767-4.815v-8.1h2.512V9.13c0 1.322.34 2.37 1.021 3.141ZM53.42 13.366c.865 0 1.61-.137 2.235-.413.624-.29 1.277-.744 1.958-1.364l1.617 1.612c-1.575 1.694-3.49 2.542-5.746 2.542-2.242 0-4.108-.703-5.598-2.108-1.476-1.405-2.213-3.182-2.213-5.332 0-2.149.752-3.94 2.256-5.373C49.447 1.498 51.355.781 53.654.781c2.313 0 4.242.827 5.79 2.48l-1.597 1.695c-.71-.662-1.384-1.123-2.022-1.385-.624-.262-1.362-.393-2.214-.393-1.504 0-2.766.476-3.788 1.426-1.022.937-1.532 2.143-1.532 3.617 0 1.46.503 2.686 1.51 3.678 1.022.978 2.228 1.467 3.619 1.467ZM72.59 4.542c-1.008-1.02-2.25-1.529-3.725-1.529-1.476 0-2.724.51-3.746 1.53-1.007 1.019-1.511 2.259-1.511 3.719 0 1.447.504 2.68 1.511 3.7 1.022 1.019 2.27 1.528 3.746 1.528s2.717-.51 3.725-1.529c1.021-1.02 1.532-2.252 1.532-3.699 0-1.46-.51-2.7-1.532-3.72Zm1.851 9.052c-1.504 1.419-3.363 2.128-5.576 2.128-2.214 0-4.072-.71-5.576-2.128-1.504-1.433-2.257-3.21-2.257-5.332 0-2.135.753-3.913 2.257-5.332C64.793 1.498 66.65.781 68.865.781c2.213 0 4.072.717 5.576 2.15 1.504 1.418 2.256 3.196 2.256 5.331 0 2.122-.752 3.899-2.256 5.332ZM40.807 22.22v.629h-2.173v1.046h1.951v.593h-1.95v1.058h2.242v.628h-2.93V22.22h2.86ZM42.987 22.741a.917.917 0 0 0-.49.119.397.397 0 0 0-.192.362c0 .158.064.28.192.367.129.083.4.174.816.272.42.098.734.235.943.412.214.178.32.44.32.787 0 .343-.133.622-.401.836-.268.215-.62.323-1.054.323a2.518 2.518 0 0 1-1.695-.64l.43-.503c.412.347.84.52 1.282.52.221 0 .396-.044.524-.135a.433.433 0 0 0 .198-.368.403.403 0 0 0-.186-.356c-.12-.086-.33-.164-.63-.232a6.675 6.675 0 0 1-.68-.192 1.61 1.61 0 0 1-.414-.232c-.24-.177-.361-.448-.361-.814 0-.366.136-.647.408-.843.275-.2.615-.3 1.019-.3.26 0 .518.042.774.125.257.083.478.2.664.35l-.367.504a1.4 1.4 0 0 0-.489-.26 1.946 1.946 0 0 0-.611-.102ZM46.964 22.831v3.343h-.688V22.83h-1.234v-.61h3.157v.61h-1.235ZM51.547 24.404a6.46 6.46 0 0 0 .588-.64.776.776 0 0 0 .175-.469.515.515 0 0 0-.187-.401.674.674 0 0 0-.471-.17c-.334 0-.612.166-.833.498l-.553-.311c.178-.26.374-.457.588-.588.217-.132.495-.198.833-.198.341 0 .64.105.897.316.256.208.384.492.384.854 0 .204-.055.398-.163.583-.109.184-.309.422-.6.712l-.955.945h1.846v.639h-2.784v-.566l1.235-1.204ZM54.65 23.103c-.159.271-.239.628-.239 1.069 0 .44.08.797.24 1.069.162.27.415.407.756.407.342 0 .59-.134.746-.402.159-.271.239-.63.239-1.074 0-.445-.08-.801-.24-1.069-.154-.272-.403-.407-.745-.407-.341 0-.594.135-.757.407Zm-.489 2.562c-.276-.374-.413-.871-.413-1.493 0-.622.137-1.118.413-1.488.276-.373.691-.56 1.246-.56.556 0 .971.187 1.247.56.275.37.413.866.413 1.488s-.138 1.12-.413 1.493c-.276.369-.691.554-1.247.554-.555 0-.97-.185-1.246-.554ZM57.583 22.22h1.479v3.954h-.652v-3.36h-.827v-.593ZM61.18 25.62c.362 0 .628-.12.799-.357.17-.237.258-.558.262-.961a1.507 1.507 0 0 1-.42.3c-.182.09-.384.135-.605.135-.365 0-.672-.117-.92-.35-.245-.238-.367-.55-.367-.94 0-.391.132-.706.396-.943.268-.238.603-.357 1.007-.357.653 0 1.103.283 1.352.849.14.324.21.69.21 1.097 0 .407-.045.746-.135 1.017-.09.272-.211.487-.367.645-.303.31-.675.464-1.118.464-.439 0-.837-.134-1.194-.402l.344-.492c.09.076.208.143.355.204.151.06.285.09.402.09Zm.123-1.47a.911.911 0 0 0 .588-.188.604.604 0 0 0 .24-.491.69.69 0 0 0-.228-.52.787.787 0 0 0-.57-.221.807.807 0 0 0-.56.198.628.628 0 0 0-.221.497.72.72 0 0 0 .198.515c.136.14.32.21.553.21Z"></path>
                                    </svg>