<svg xmlns="http://www.w3.org/2000/svg" width="83" height="36" fill="none">
                                        <path fill="currentColor" d="M10.452 10.917c-.229-.036-.41-.206-.85.155.374-.063.558.074.85-.155Zm.093-.532c-.329-.039-.706.057-1.152.183-.244.096-.484.159-.75.155-.233-.004-.44.06-.658.224.835-.02 1.68-.141 2.708-.393-.06-.067-.09-.1-.148-.169Zm-2.175.101a2.34 2.34 0 0 0-.621.19c.191.07.429.04.62-.19Zm-.359-.672c-.203.029-.376.094-.399.294.1 0 .163.035.2.002.558-.224 1.016-.45 1.537-.643.236-.03.436-.026.668-.023.004-.032.078-.1.082-.132-.27.029-.514.125-.75.155-.447.127-.89.22-1.338.347Zm-4.026.87c-.41.094-.525.226-.74.657.167.002.359.072.559.075.195.036.217.137.265.304-.313.128-.613.124-.916.453a8.502 8.502 0 0 0 1.056-.217c.251-.464.466-.894.725-1.424a5.117 5.117 0 0 1-.95.152ZM6.146 25.02c-.022-.1-.173-.237-.228-.337.08-.133.188-.197.233-.296.066-.3.07-.634.137-.932l.041-.366c.215-.43.292-.828.241-1.263.007-.066.125-.231.14-.365.04-.066.119-.164.093-.232-.085-.134 0-.3.192-.53.119-.165.137-.33.222-.497.282-.728.463-1.458.741-2.154-.158-1.27 3.055-5.588.62-4.959a1.462 1.462 0 0 1-.52.193c-2.554 1.094-2.336.931-3.261 3.25-.07.332-.17.632-.274.963-.049.133-.03.265-.115.43-.521 1.093-.711 2.19-1.502 3.312-.07.031-.074.066-.115.132-.72.787-.617.756-1.444.71-.133-.002-.259-.07-.366-.005-.373.061-.55-.142-.557-.376a3.72 3.72 0 0 1 .148-1.03c.47-1.527 1.08-3.118 1.721-4.675.77-1.52-.805-.544-.763-1.81-.012-.202-.051-.435.037-.633.145-.399.185-.764.326-1.13.097-.265.119-.464.03-.565.285-.463.533-.891.821-1.387.444.206.968-.019 1.643-.109.444-.093.943-.685 1.054-1.085.555-1.391 1.073-2.15 1.861-3.538.5-.892 1.168-1.816 1.771-2.739.16-.23.333-.295.562-.257.262.037.457.072.72.11.321.105.332.304.198.603-.258.528-.577.99-.761 1.455-.259.529-.51.993-.765 1.488-2.278 3.098-.195 2.93 2.402 2.037.085-.165.193-.231.24-.362.408-.962.736-1.524 1.247-2.515.097-.266.333-.596.363-.86.049-.435.388-.796.632-1.192.163-.264.293-.529.363-.86.026-.234.23-.564.36-.828.398-.594.83-1.188 1.233-1.815l1.363.02c.699.011 1.312.187 1.81.496.469.272.69.676.487 1.306-.21.398-.289.796-.595 1.159-.806 1.254-1.417 2.545-1.99 3.803-.696 1.455 1.055.982 1.941.796.17-.032.374-.061.418.14-.643.09-1.36.245-1.94.37-.34.061-.583.157-.865.287-.387.193-.59.524-.735.921.166.003.428.04.628.044.1.001.27-.03.377-.095.403-.027.813-.121 1.204-.048.163.036.532.008.772-.055.27-.029.503-.025.802-.021-.082-.167-.166-.302-.215-.47-.014-.167.109-.364.205-.631.066.002.166.004.232.004.038-.031.038-.031.074-.064-.085-.136-.236-.271-.288-.405.447.173.78.478.86.945l.007-.065a.357.357 0 0 1-.277.095c-.291.53.107.535.54.543-.507.359-.78.121-1.15.148.218.136.34.238.524.375-.24.063-.502.025-.675.39.162.035.361.038.623.075-.239.063-.416.162-.553.192-.137.032-.307.062-.462.26.133.002.258.07.42.107-.823.22-1.647.441-2.482.761-.551.158-1.168.316-1.755.507-.48.127-.78.421-.957.818-.333.595-.5 1.193-.666 1.79-.148.432-.263.862-.478 1.293-.314.729-.43 1.46-.706 2.155-.208.664-.416 1.328-.69 1.99-.007.068-.114.133-.192.23-.008.067-.085.166-.055.2.147.469-.148 1.031-.337 1.528-.012.101-.056.2-.064.267.048.467-.266.895-.48 1.326-.056.199-.378.393-.603.623a1.56 1.56 0 0 0-.44.06c-.1-.001-.199-.003-.27.03-.476.391-.964.285-1.44.678-.178.097-.081-.17-.225-.07-.111.098-.19.197-.222.196-.133-.003-.192-.07-.321-.106l-.296.264c-.455.193-.484.159-.584-.143M24.21 8.194c-.077.099-.15.164-.199.297-.004.034-.01.1-.085.166-.11.098-.225.23-.377.393-.078.1-.358.229-.528.26-.063-.035-.17.03-.245.096-.213.13-.343.094-.468.026-.093-.068-.16-.07-.259-.071a1.345 1.345 0 0 1-.362-.038c.037-.033.078-.1.114-.132.012-.1.09-.2.138-.33.085-.167.162-.265.28-.431.008-.066.115-.131.12-.164.021-.2.206-.363.328-.562l.233-.296c.073-.066.148-.131.214-.13.07-.033.137-.031.166.001-.007.068.06.07.13.036.07-.032.108-.065.137-.032.125.07.288.105.417.142.222.102.369.27.476.505-.11.099-.155.199-.23.264Zm-3.463 3.581.037-.032c.115-.133.185-.164.292-.23.373-.06 1.271-.647 1.582-.442.084.134.398.306.516.441.114.169.122.402-.015.734-.248.428-.526.825-.85 1.352-.09.2-.175.365-.223.497-.166.298-.344.695-.544.992-.177.398.563-.857.46-.526-.012.098-.09.198-.13.265-.34.661-.326.528-.427 1.125-.037.334-.359 2.03-.359 2.33.007.233.125.367.21.502.126.07.277.205.469.274.151.136.325.072.528.042 2.87-.956 1.914-1.339 3.7-3.01.347-.429.758-.822.983-1.353.004-.033.004-.033.122-.197.129.335-.289.795.166.902-.84 1.254-1.543 3.077-2.748 3.726-.38.427-2.864 2.388-4.263 1.8-.484.16-.864-.313-1.34-.52-.318-.138-.62-.409-.883-.747-.117-.434-.231-.904-.183-1.336-.045-.2-.019-.434 0-.6.145-.398.163-1.165.326-1.428.052-.166.137-.332.16-.531.07-.033.022-.2.258-.229.033 0 .081-.134.119-.166.192-.23.248-.43.44-.66 0 0-.776.689-.303.029.34-.662 1.02-1.384 1.271-1.848a.452.452 0 0 1 .085-.164c.122-.199.237-.33.197-.564-.019-.134.03-.267.151-.464.063.034.092.067.196.036"></path>
                                        <path fill="#17161A" d="M32.947 18.528c-.211.098-.37.329-.415.728.015.166.1.302.2.303.074-.066.173-.065.247-.13a1.44 1.44 0 0 0 .477-.392c.422-.494.614-1.024.492-.827-.385.161-.676.091-1.001.318Zm4.182-2.57c-.06.833.24.538 1.493.359.406-.062 1.023-.22 1.688-.81.332-.294.657.078.805.246-.015.133-.522.792-.596.858-1.489.81-2.22.8-3.265.917-.853.187-.968.618-1.342 1.28l-.163.264c-.144.397-.41.694-.61.99-.074.066-.152.166-.222.197l-.376.394c-.16.231-.389.495-.64.656l-.262.264-.366.294a.461.461 0 0 1-.3-.004c-.092-.068-.214-.17-.31-.205a.922.922 0 0 1 0-.3c-.032-.3-.103-.569-.398-.607-.126-.068-.21-.203-.299-.303a.889.889 0 0 0-.358-.372c-.277-.206-.284-.738.03-1.167.167-.298.352-.46.566-.592.219-.163.465-.293.71-.39.428-.259.794-.254 1.249-.447.247-.128.44-.36.613-.722.329-.864.736-2.123.936-3.02l.127-1.133a.399.399 0 0 0-.011-.199c-.015-.167-.174-.236-.288-.104-.07.031-.107.065-.151.163-.274.363-.547.725-.759 1.123-.607.957-1.186 1.982-1.79 2.906-.443.692-.846 1.32-1.227 2.048-.632 1.19-1.897 2.371-2.474 3.662-.125.232-.218.463-.432.593-.174.065-.27.33-.292.53a2.518 2.518 0 0 1-.178.696c-.081.133-.163.265-.237.331-.225.23-.31.394-.429.56-.425.826-.784 1.655-.95 2.551-.079.4-.123.799-.268 1.197-.067.299-.226.53-.47.626a1.024 1.024 0 0 0-.454.493c-.036.033-.152.164-.185.163-.1 0-.159.231-.236.33h-.034c-.544.092-.83-.313-.96-.949-.129-.635-.117-1.334-.076-2 .112-1.599.383-3.127.76-4.723.138-.631.345-1.295.512-1.89.249-1.032.596-2.06.97-3.02a88.53 88.53 0 0 1 1.676-4.274c.138-.333.304-.63.449-1.028.51-.992.961-2.051 1.475-3.077.223-.496.551-1.057.84-1.554.18-.13.347-.129.498.008l.742.51.03.034c.431.608.65 1.345.638 2.344a4.75 4.75 0 0 1-.283 1.63 28.512 28.512 0 0 1-1.01 2.484c-.259.529-.533 1.191-.8 1.787-.74 1.857.35 1.64.646 1.078.13-.265.703-.922.84-1.255l1.35-2.246a4.2 4.2 0 0 1 .717-1.056c.263-.263.533-.592.829-.854.221-.196.538-.358.771-.354l.565.008c.307-.06.543.208.783.447.155.101.258.37.262.636.003.266.037.566.01.8l.026.967-.105 1.232"></path>
                                        <path fill="#17161A" d="M39.874 23.301c-.207.065-.428.26-.554.493-.123.198-.237.33-.381.427-.148.13-.295.262-.381.427-.055.199-.074.366-.158.53-.09.2-.071.333.017.435.115.168.233.303.347.472.093.068.222.104.37-.027.143-.1.254-.197.435-.328.147-.13.3-.295.448-.427.325-.228.587-.49.831-.887.074-.064.118-.164.16-.23.195-.264.362-.561.495-.86.2-.296.203-.63.374-.96.033 0 .04-.067.044-.1.119-1.065-1.249.447-1.693.841a.777.777 0 0 1-.354.194Zm.988 2.782c-.134-.002-.134-.002-.454.194l.01-.1c-.063-.035-.063-.035-.088-.102-.075.066-.174.063-.218.164-.181.13-.352.16-.558.225-.07.032-.07.032-.23-.036.041-.068.045-.101.086-.167-.1-.002-.174.063-.272.062a.208.208 0 0 1-.178.099c-.285.162-.41.093-.514-.175-.044-.201-.055-.401-.173-.537-.17-.269-.166-.602-.191-.97.015-.132.074-.365.159-.53.148-.432.388-.794.699-1.19a13.022 13.022 0 0 1 1.95-1.97c1.394-1.146 1.232-1.481.945-2.486-.114-.768-.383-1.339-.65-1.943-.017-.134-.106-.235-.124-.368-.25-.438-.61-2.877-.544-3.476.074-.064.048-.132.13-.264-.012-.2.078-.4.233-.597.044-.099.166-.297.084-.465.119-.165.178-.398.297-.562.084-.165.162-.263.251-.462.077-.1.123-.199.233-.297l.366-.595c.164-.264.385-.46.543-.691.041-.066.075-.066.145-.098a.543.543 0 0 0 .225-.23c.115-.131.189-.198.248-.13.222.103.377.206.553.408 0 0 .034.001.063.036.285.138.68 1.376.665 1.809-.012.101-.023.2.036.268-.022.2-.044.398-.134.597-.096.266-.2.597-.362.862-.082.131-.126.231-.262.262a1.02 1.02 0 0 0-.303.33c-.045.098-.19.196-.175.363 0 0-.007.067-.044.1-.118.165-.24.362-.325.529-.17.33-.237.929-.168 1.196.048.168.196.336.285.437.39.374.615 1.644.94 2.015.151.136.11.501.228.639.218.735 1.381-.146 2.272-.367.54-.359 1.079-.716 1.623-1.108.395-.261.794-.555 1.16-.85a6.74 6.74 0 0 0 .706-.656c.185-.163.374-.36.562-.558.052.135.074.235.096.335.044.201.055.401-.1.599-.045.098-.118.165-.13.265-.093.232-.214.43-.37.627-.188.198-.318.462-.506.659-.181.13-.329.263-.477.393l-.765.589-.148.131c-.387.193-.758.522-1.153.781-.111.1-.256.197-.4.295-.72.49-1.717.474-1.817 1.372.059.668.074.533-.215 1.33.022.1-.052.166-.03.266-.078.1-.048.134-.048.134-.156.197-.13.562-.219.762a.455.455 0 0 1-.184.163c-.037.033-.07.033-.108.066-.155.198-.343.394-.47.626-.207.364-1.208 1.282-1.504 1.544-.114.132-.192.231-.303.329-.155.197-.466.292-.676.39-.038.032-.07.032-.074.065a1.18 1.18 0 0 1-.672.356c-.07.032-.075.066-.145.098.233-.296.459-.526.688-.79"></path>
                                        <path fill="#17161A" d="M57.384 6.369c.047-.133.1-.3.152-.464.063-.267.159-.532.222-.798.066-.299.066-.598.067-.898-.018-.134-.114-.169-.188-.103-.144.098-.251.163-.336.329a4.3 4.3 0 0 0-.43.86c-.043.099-.12.197-.165.297a6.106 6.106 0 0 0-.249.43c-.103.331-.21.696-.351 1.062-.23.862.698.91.964.313.103-.332.207-.663.314-1.028Zm-1.458 3.811c.425-.827.6-1.49-.576-.81-.488 1.094-.707 1.856-1.12 2.884-1.04 2.75.254.705.857-.52.304-.628.473-.96.84-1.554Zm4.603 5.004c-.023.2-.123.199-.108.365.018.134-.455 1.093-.536 1.225-.26.53-.552 1.059-.81 1.588-.367.594-.725 1.123-1.088 1.684-.16.23-1.944 2.204-2.126 2.333-.464.293-1.292 1.147-1.722 1.408-.284.163-1.322.512-1.559.543-.435.026-.904.052-1.292-.054-.687-.11-1.603-1.158-1.86-1.829-.133-.3-.303-.57-.366-.904-.084-.436-.106-1.135-.083-1.636.313-2.794.689-3.188 1.788-5.873.093-.23.149-.43.24-.663.06-.232.185-.463.275-.662.14-.365.28-.73.417-1.06.248-.73 1.254-1.982.474-2.159-.229-.038-.432-.007-.612-.177-.185-.135-.373-.238-.557-.375-.06-.068-.151-.136-.166-.302.07-.032.14-.066.173-.064.477-.093.92-.186 1.396-.28.307-.061.643-.09.98-.118a.498.498 0 0 0 .36-.261c.131-.264.324-.494.423-.793.403-.627.71-1.29 1.143-1.883.392-.527.776-.988 1.254-1.382.077-.097.188-.195.261-.262.145-.097.285-.162.448-.126.191.07.402-.027.635-.024.032 0 .032 0 .07-.032.476-.091.62.109.712.477.13.336.159.67.114 1.068-.023.201-.008.368.006.535.02.133.001.3-.051.466-.052.165-.104.331-.159.53l-.288.796c-.012.101-.019.167-.064.266.092.068.193.07.325.072.403-.028.839-.054 1.241-.082l1.73.028c.2.003.39.072.62.108-.078.099-.118.164-.156.198-.074.066-.18.131-.25.164-.245.095-.525.224-.77.32-.004.033-.037.033-.037.033-.37.028-.786.189-1.181.149a2.56 2.56 0 0 0-.71.09c-.14.064-.306.06-.443.092-.27.03-.507.059-.776.09-.137.03-.215.127-.296.261-.037.032-.04.066-.078.099-.524 1.125-1.175 2.181-1.73 3.273a3.777 3.777 0 0 0-.208.364c-.203.33-.369.627-.51.992a4.711 4.711 0 0 1-.528.858c-.16.232-.16.532-.352.762-.459.826-1.173 3.349-1.248 4.614-.026.533.05 1.034.16 1.536.049.168.17.269.255.404.034 0 .064.034.13.036.3.004.894.046 1.216-.149.214-.13 1.3-.912 1.518-1.076.555-.492 1.822-1.706 2.229-2.366.362-.561.61-1.291.969-1.82.17-.33.584-1.058.792-1.42.163.035.41-.094.366.005"></path>
                                        <path fill="#17161A" d="M64.775 13.55c-.077.099-.193.23-.273.362-.16.23-.145.397.01.5.092.068.218.136.273.238.174.234.444.205.713.178.24-.064.432-.293.591-.526.296-.562.44-.66.703-1.223.673-1.257-.424-.972-.967-.58-.395.26-.71.69-1.05 1.05Zm-2.219 3.466-.007.066.007-.066Zm-2.266-.869c-.226.53-.249 1.03-.238 1.53-.004.034.03.034.06.067.073-.365.143-.698.213-1.029.06-.234.12-.466.042-.666-.037.033-.074.066-.077.098Zm-.238 2.13c.022.1.047.168.07.267-.013.1.08.17-.001.3-.03-.033-.062-.033-.059-.066-.13-.336-.147-.77-.165-1.204-.03-.033.008-.066.01-.099.056-.499.109-.965.297-1.462.044-.1.09-.2.1-.299l.026-.233c-.122.199-.203.33-.251.463-.052.166-.1.299-.152.465-.23.862-.286 1.662.001 2.366.053.134.141.236.226.37.06.068.122.102.218.137-.004.033.033 0 .1.002-.082-.168-.167-.303-.215-.47-.077-.202-.054-.401-.135-.568-.034-.002-.07.03-.07.03Zm3.492-2.946c-.008.066-.082.132-.152.164-.037.032-.108.065-.118.164-.048.133-.085.166-.19.198-.07.032-.073.065-.128.265.067 0 .1 0 .129.035l-.004.033c-.066-.001-.133-.001-.232-.004.044-.098.055-.199.063-.266h-.067l-.178.697c.063.034.092.069.126.069.007.233-.015.432-.041.666-.027.232.018.434.066.6.085.136.269.872.354 1.007.413.472.91 1.08 1.44 1.122.162.036 1.145-.116 1.315-.146.823-.222 1.636-.643 2.43-1.198.614-.423 1.202-.914 1.819-1.372l.11-.098c.227-.23.449-.427.674-.656.407-.362.78-.721 1.127-1.15.118-.166.236-.329.444-.394-.101.3-.197.565-.36.829a.824.824 0 0 1-.195.264c-.226.23-.414.427-.577.692-.115.13-.263.262-.376.393-.038.033-.08.1-.156.197.104-.03.173-.064.276-.095-.055.198-.224.23-.277.396.03.033.026.067.09.101-.119.165-.23.263-.378.394-.218.164-.44.361-.628.557-.336.33-.7.59-1.061.851-.181.131-.329.261-.506.359-.144.097-.285.162-.43.26-.21.097-.42.194-.635.323-.355.195-.739.355-1.111.418l-.311.094c-.413.128-.82.187-1.223.215-.472.06-2.393-.337-2.807-.51-1.11-.484-1.28-1.054-1.76-1.527-.181-.17-.317-.438-.387-.706-.119-.434-.1-.902-.077-1.4.116-1.033.493-2.027 1.03-2.952.12-.198.12-.198.122-.499-.178.098-.286.162-.374.36a5.627 5.627 0 0 1-.495.86c.033-.299.188-.497.314-.727a11.95 11.95 0 0 1 1.12-1.684 10.63 10.63 0 0 1 1.401-1.512 8.62 8.62 0 0 1 1.638-1.24c.14-.065.243-.098.35-.163.174-.064.345-.095.425.074.09.1.225.07.284.137.092.07.11.202.17.27.315.171 1.54.524 1.817.726.092.07.143.203.195.337.133.303.229.639.439.841.06.067.077.2.1.3.021.401.014.769-.134 1.2-.118.463-.367.894-.644 1.29-.159.23-.315.427-.443.692-.093.232-.248.43-.407.661a1.11 1.11 0 0 1-.655.49c-.21.097-.446.127-.642.09-.096-.034-.2-.002-.251-.136.003-.034-.03-.035-.03-.035-.27.03-.402-.273-.59-.375a.323.323 0 0 1-.048-.169c.081-.132.022-.198 0-.298-.103-.269-.202-.572-.339-.839-.023-.1-.118-.136-.23-.038-.05.166-.2.299-.221.498"></path>
                                        <path fill="#17161A" d="M76.091 16.59c.188-.498 1.615-2.843 1.892-3.238.234-.297.467-.594.67-.924.23-.263.462-.559.625-.825.159-.229.373-.36.576-.39.233.004.436-.026.636-.023.4.005.598.308.749.745l-.015.133c.018.433.066.901.08 1.369.019.432-.067.897-.115 1.33-.033.299-.033.6-.1.897.154.104.107.236.144.203.074-.064.295.038.369-.027.041-.066.11-.098.151-.164.145-.098.29-.196.44-.36.119-.165.219-.164.333.006a.338.338 0 0 1-.163.263c-.037.033-.078.099-.119.164-.043.1-.121.2-.225.232l-.11.097c-.038.033-.108.065-.111.098-.037.033-.07.032-.108.066-.148.13-.25.162-.384.16a.715.715 0 0 0-.314.13c-.107.063-.208.062-.266-.006-.217-.136-.447-.172-.669-.277-.386-.105-.646-.476-.76-.944-.132-.603-.058-1.268.113-1.898.1-.299.13-.565.192-.831l.167-.598a.49.49 0 0 0 .074-.366c-.032 0-.096-.033-.103.033a.839.839 0 0 0-.152.164c-.163.265-.359.528-.558.825a1.746 1.746 0 0 0-.267.596c.018.133-.093.232-.137.33-.362.562-.688 1.091-.958 1.72-.218.463-.494.86-.746 1.322-.378.694-.813 1.321-1.129 2.049-.092.232-.255.497-.384.76-.089.2-1.099 1.784-1.317 1.948-.007.066-.11.099-.184.163-.463.56-.925.519-1.441.378-.074.065-.133-.003-.193-.07-.517-.14-.726-.644-.785-1.311-.036-.568.031-1.166.094-1.732.13-.865.26-1.73.423-2.594.274-.963.134-.898.499-1.793.379-1.293.223-1.096.834-2.386.06-.233.21-.397.302-.63.3-.595.56-1.123.885-1.652.181-.43.321-.496.646-.424.233.003.524.074.817.147.196.036.387.105.628.342.184.436.483.74.771 1.144.239.538.262.939-.009 1.568-.24.662-.25.162-.496.859-.587 1.391-1.509 2.476-2.015 3.736-.678 1.59 1.027.048 1.223-.514M12.944 35.285h.306c.264 0 .47-.082.622-.245.15-.163.226-.383.226-.659 0-.274-.076-.493-.226-.656-.151-.164-.358-.245-.622-.245h-.306v1.805Zm.306-2.335c.452 0 .823.131 1.114.397.29.265.436.61.436 1.033 0 .423-.146.768-.437 1.035-.29.267-.66.4-1.113.4h-.996V32.95h.996M18.798 32.941v.53h-1.024v.617h.903v.532h-.903v.665h1.024v.53h-1.714V32.94h1.714ZM22.198 33.46a.32.32 0 0 0-.212.069.248.248 0 0 0-.082.2c0 .087.025.156.076.21a.505.505 0 0 0 .2.123c.082.028.173.055.274.081.101.026.201.058.3.094.1.036.191.082.273.136a.597.597 0 0 1 .2.233.761.761 0 0 1 .077.356c0 .242-.098.45-.293.622-.195.173-.452.26-.77.26-.32 0-.576-.077-.771-.232-.195-.156-.292-.376-.292-.662h.734c.018.228.134.342.347.342.099 0 .177-.026.233-.079a.267.267 0 0 0 .086-.202.272.272 0 0 0-.077-.2.528.528 0 0 0-.2-.122 2.625 2.625 0 0 0-.274-.084 2.727 2.727 0 0 1-.301-.096c-.1-.037-.19-.084-.272-.137a.565.565 0 0 1-.2-.229.765.765 0 0 1-.076-.353c0-.267.098-.48.294-.64.196-.162.447-.242.752-.242s.552.07.74.21c.189.14.287.362.295.663h-.75a.39.39 0 0 0-.099-.238.285.285 0 0 0-.212-.084M25.695 35.815V32.95h.69v2.864h-.69ZM29.095 35.426c-.281-.277-.421-.627-.421-1.052 0-.424.14-.774.421-1.05a1.41 1.41 0 0 1 1.03-.415c.316 0 .595.085.84.252.245.17.415.403.512.703h-.822a.542.542 0 0 0-.517-.314c-.237 0-.423.075-.559.224-.136.15-.204.35-.204.6s.068.45.204.601a.7.7 0 0 0 .547.223.62.62 0 0 0 .401-.124.6.6 0 0 0 .208-.333h-.798v-.53h1.54v.53c-.05.262-.192.506-.423.731-.11.11-.247.198-.41.265a1.333 1.333 0 0 1-.518.104c-.406 0-.75-.14-1.03-.415M35.61 32.941h.691v2.873h-.69l-1.154-1.808v1.809h-.69V32.94h.69l1.154 1.809V32.94ZM42.772 33.46a.32.32 0 0 0-.211.069.247.247 0 0 0-.084.2c0 .087.027.156.078.21.05.054.118.093.199.123.082.028.174.055.275.081.1.026.2.058.3.094.1.036.19.082.272.136a.604.604 0 0 1 .2.233c.051.098.077.216.077.356 0 .242-.097.45-.293.622-.195.173-.452.26-.77.26-.32 0-.576-.077-.77-.232-.196-.156-.293-.376-.293-.662h.734c.019.228.134.342.347.342.1 0 .177-.026.233-.079a.265.265 0 0 0 .085-.202.273.273 0 0 0-.076-.2.535.535 0 0 0-.2-.122 2.645 2.645 0 0 0-.274-.084 2.685 2.685 0 0 1-.3-.096c-.1-.037-.19-.084-.273-.137a.578.578 0 0 1-.2-.229.766.766 0 0 1-.076-.353c0-.267.098-.48.294-.64.196-.162.447-.242.753-.242.305 0 .552.07.74.21.188.14.286.362.294.663h-.75a.386.386 0 0 0-.099-.238.284.284 0 0 0-.212-.084M46.076 33.48v-.53h2.235v.53h-.774v2.335h-.69V33.48h-.77ZM50.559 34.66v-1.71h.69v1.71c0 .171.041.303.125.396.083.093.206.139.367.139.162 0 .285-.047.371-.139.086-.093.13-.225.13-.396v-1.71h.69v1.71c0 .253-.06.472-.177.655a1.064 1.064 0 0 1-.444.402 1.338 1.338 0 0 1-.582.127c-.328 0-.605-.104-.83-.31-.227-.207-.34-.498-.34-.874M56.057 35.285h.306c.264 0 .471-.082.621-.245.151-.163.226-.383.226-.659 0-.274-.075-.493-.226-.656-.15-.164-.357-.245-.62-.245h-.307v1.805Zm.306-2.335c.452 0 .824.131 1.113.397.292.265.436.61.436 1.033 0 .423-.144.768-.436 1.035-.29.267-.661.4-1.113.4h-.996V32.95h.996M60.195 35.815V32.95h.69v2.864h-.69ZM65.167 34.975c.136-.15.204-.352.204-.602s-.068-.45-.204-.6a.701.701 0 0 0-.545-.223.698.698 0 0 0-.544.224c-.136.15-.204.35-.204.6s.068.45.204.6c.135.15.316.224.544.224a.7.7 0 0 0 .545-.223Zm-1.573.453c-.281-.278-.422-.63-.422-1.054 0-.424.14-.775.422-1.051.28-.277.625-.415 1.032-.415a1.4 1.4 0 0 1 1.029.415c.279.276.417.627.417 1.05 0 .426-.139.777-.419 1.055-.28.278-.623.416-1.028.416-.406 0-.75-.138-1.031-.416Z"></path>
                                    </svg>