<svg xmlns="http://www.w3.org/2000/svg" width="70" height="39" fill="none">
                                        <path fill="currentColor" d="M4.545 14.568v3.63h2.297c.563 0 1.007-.163 1.332-.493.324-.33.487-.763.487-1.3s-.166-.978-.498-1.322c-.333-.344-.773-.515-1.321-.515H4.545Zm0 6.423v5.864H.842v-15.08h6c1.76 0 3.133.452 4.115 1.354.982.902 1.473 1.991 1.473 3.265 0 .874-.267 1.726-.801 2.557-.535.83-1.408 1.417-2.621 1.76l3.726 6.145H8.4L4.979 20.99h-.434M24.3 11.733v2.792h-5.502v3.243h4.852v2.793h-4.852v3.502H24.3v2.793h-9.206V11.732H24.3M26.229 14.568v-2.792h11.999v2.792h-4.16v12.287h-3.702V14.568h-4.137ZM43.924 14.568v3.63h2.297c.562 0 1.006-.163 1.332-.493.324-.33.486-.763.486-1.3s-.166-.978-.497-1.322c-.333-.344-.773-.515-1.321-.515h-2.297Zm0 6.423v5.864h-3.703v-15.08h6c1.76 0 3.133.452 4.115 1.354.982.902 1.473 1.991 1.473 3.265 0 .874-.267 1.726-.801 2.557-.535.83-1.41 1.417-2.622 1.76l3.726 6.145H47.78l-3.423-5.865h-.433M64.293 22.43c.73-.787 1.094-1.839 1.094-3.157 0-1.317-.365-2.37-1.094-3.158-.729-.787-1.704-1.182-2.924-1.182s-2.195.395-2.924 1.182c-.73.788-1.093 1.84-1.093 3.158 0 1.318.364 2.37 1.093 3.157.73.789 1.703 1.182 2.924 1.182 1.22 0 2.195-.393 2.924-1.181Zm-8.447 2.384c-1.51-1.46-2.264-3.307-2.264-5.54 0-2.235.755-4.079 2.264-5.532 1.508-1.455 3.358-2.181 5.545-2.181s4.029.726 5.523 2.18c1.495 1.454 2.242 3.298 2.242 5.532s-.751 4.08-2.252 5.541c-1.503 1.461-3.344 2.192-5.524 2.192s-4.026-.73-5.534-2.192M23.209 2.31V.74h6.749v1.57h-2.34v6.91h-2.082V2.31h-2.327ZM36.46.74h2.083v8.48H36.46V5.705h-3.3V9.22h-2.084V.74h2.084v3.394h3.3V.74ZM45.426.715v1.571H42.33v1.825h2.73v1.57h-2.73V7.65h3.095v1.57h-5.178V.715h5.178ZM11.949 34.51a.516.516 0 0 0-.343.111c-.089.074-.133.179-.133.316a.46.46 0 0 0 .123.334c.083.084.191.148.323.193.133.046.28.089.444.13.162.04.324.09.484.148.161.058.308.13.44.216.133.087.24.208.323.366.083.157.123.345.123.565 0 .384-.157.711-.472.986-.314.273-.73.41-1.245.41-.514 0-.928-.123-1.243-.37-.315-.245-.472-.593-.472-1.046h1.185c.03.362.217.543.56.543.16 0 .287-.042.378-.126a.413.413 0 0 0 .137-.32.429.429 0 0 0-.124-.317.89.89 0 0 0-.322-.193 5.178 5.178 0 0 0-.443-.132 4.407 4.407 0 0 1-.486-.152 2.4 2.4 0 0 1-.44-.217.917.917 0 0 1-.321-.362 1.18 1.18 0 0 1-.124-.558c0-.423.158-.76.475-1.015.316-.254.722-.38 1.215-.38.492 0 .892.11 1.196.332.303.221.462.572.475 1.05H12.45a.605.605 0 0 0-.16-.378.462.462 0 0 0-.341-.133M18.47 34.543v-.84h3.609v.84h-1.25v3.695h-1.114v-3.695H18.47ZM26.895 36.411v-2.707h1.113v2.707c0 .271.067.48.201.626.136.146.333.22.593.22.261 0 .46-.074.6-.22.139-.146.208-.355.208-.626v-2.707h1.114v2.707c0 .4-.094.746-.283 1.036-.188.291-.428.503-.716.637-.29.134-.603.2-.942.2-.53 0-.978-.163-1.342-.49-.365-.328-.546-.788-.546-1.383M36.958 37.399h.494c.426 0 .761-.129 1.004-.388.243-.258.365-.605.365-1.04 0-.435-.122-.782-.365-1.04-.243-.259-.578-.388-1.004-.388h-.494V37.4Zm.494-3.695c.73 0 1.33.209 1.798.63.47.42.704.964.704 1.634 0 .669-.234 1.215-.704 1.638-.468.422-1.068.632-1.798.632h-1.608v-4.534h1.608ZM44.826 38.238v-4.534h1.115v4.534h-1.115ZM54.042 36.908c.22-.237.33-.554.33-.95 0-.396-.11-.712-.33-.95-.219-.236-.512-.355-.88-.355-.366 0-.66.119-.878.356-.22.236-.33.553-.33.95 0 .395.11.712.33.949.219.237.512.356.879.356s.66-.119.88-.356Zm-2.54.717c-.455-.44-.682-.995-.682-1.667 0-.671.227-1.226.681-1.663.454-.437 1.01-.656 1.668-.656.659 0 1.212.22 1.661.656.45.437.675.992.675 1.663 0 .672-.226 1.228-.678 1.667-.452.44-1.005.66-1.661.66-.655 0-1.21-.22-1.665-.66Z"></path>
                                    </svg>