<svg xmlns="http://www.w3.org/2000/svg" width="73" height="29" fill="none">
                                        <path fill="currentColor" d="M.281 19.145V2.939h4.071v16.206H.282ZM8.554 17.506c-1.23-1.2-1.845-2.8-1.845-4.801 0-2.001.615-3.598 1.845-4.79 1.23-1.193 2.821-1.79 4.773-1.79 1.619 0 2.992.39 4.118 1.166 1.127.778 1.873 1.89 2.238 3.336H15.28c-.38-.77-1.004-1.154-1.868-1.154-.866 0-1.508.296-1.929.888-.42.592-.63 1.374-.63 2.344 0 .97.21 1.75.63 2.343.42.592 1.036.889 1.845.889.508 0 .905-.086 1.19-.254.286-.169.54-.47.762-.9h4.404c-.365 1.385-1.119 2.485-2.261 3.3-1.143.816-2.508 1.223-4.095 1.223-1.952 0-3.543-.6-4.773-1.8M29.706 15.105c.54-.553.81-1.354.81-2.4 0-1.047-.278-1.844-.833-2.39-.556-.546-1.215-.82-1.977-.82-.761 0-1.416.274-1.963.82-.548.546-.821 1.343-.821 2.39 0 1.046.281 1.847.844 2.4.563.555 1.226.832 1.988.832s1.412-.277 1.952-.832Zm-6.915 2.378c-1.342-1.215-2.012-2.816-2.012-4.802 0-1.985.667-3.574 2-4.767 1.333-1.192 2.984-1.789 4.951-1.789 1.968 0 3.615.597 4.94 1.79 1.325 1.192 1.988 2.78 1.988 4.766 0 1.986-.659 3.587-1.976 4.802-1.317 1.216-2.96 1.823-4.928 1.823s-3.623-.607-4.963-1.823M41.108 6.264v1.892c.841-1.354 2.182-2.031 4.023-2.031 1.524 0 2.758.492 3.703 1.477.943.986 1.415 2.325 1.415 4.017v7.526h-4.046V12.15c0-.83-.226-1.473-.678-1.928-.453-.453-1.077-.681-1.87-.681-.794 0-1.416.228-1.868.681-.453.455-.679 1.097-.679 1.928v6.995h-4.07V6.264h4.07ZM53.462 19.145V6.264h4.072v12.881h-4.072ZM57.176 4.81c-.46.446-1.023.669-1.69.669s-1.23-.223-1.69-.67a2.211 2.211 0 0 1-.69-1.65c0-.654.23-1.205.69-1.651.46-.446 1.023-.67 1.69-.67s1.23.224 1.69.67c.46.446.69.997.69 1.65 0 .654-.23 1.205-.69 1.652ZM61.736 17.506c-1.23-1.2-1.845-2.8-1.845-4.801 0-2.001.615-3.598 1.845-4.79 1.23-1.193 2.82-1.79 4.773-1.79 1.618 0 2.991.39 4.118 1.166 1.127.778 1.873 1.89 2.238 3.336h-4.404c-.381-.77-1.004-1.154-1.868-1.154-.866 0-1.508.296-1.928.888-.422.592-.632 1.374-.632 2.344 0 .97.21 1.75.632 2.343.42.592 1.035.889 1.844.889.508 0 .905-.086 1.19-.254.286-.169.54-.47.762-.9h4.404c-.365 1.385-1.119 2.485-2.261 3.3-1.143.816-2.508 1.223-4.095 1.223-1.952 0-3.543-.6-4.773-1.8M17.41 24.848v3.28h-.823v-1.85l-.786 1.85h-.612l-.785-1.85v1.85h-.824v-3.28h.944l.974 2.262.969-2.262h.944ZM22.39 24.84v.607h-1.224v.705h1.079v.608h-1.08v.761h1.225v.608h-2.048v-3.29h2.048M27.507 24.84h.824v3.289h-.824l-1.379-2.07v2.07h-.823v-3.29h.823l1.379 2.07v-2.07ZM32.406 25.432a.39.39 0 0 0-.253.08.276.276 0 0 0-.099.229c0 .1.031.18.092.24.06.061.14.108.239.14a4 4 0 0 0 .327.095c.12.029.24.064.36.107.118.041.226.094.324.156a.69.69 0 0 1 .239.264c.061.114.091.25.091.409 0 .277-.116.515-.35.712-.232.199-.539.298-.92.298-.38 0-.687-.089-.92-.267-.232-.178-.349-.43-.349-.757h.878c.022.262.16.392.414.392.118 0 .212-.03.279-.091a.296.296 0 0 0 .101-.23c0-.095-.03-.17-.092-.23a.647.647 0 0 0-.238-.14 3.687 3.687 0 0 0-.328-.096 3.44 3.44 0 0 1-.359-.11 1.833 1.833 0 0 1-.325-.156.67.67 0 0 1-.238-.261.842.842 0 0 1-.091-.405c0-.305.116-.55.35-.734.235-.184.535-.275.9-.275.364 0 .659.08.884.24.224.161.342.413.352.76h-.896a.43.43 0 0 0-.119-.273.346.346 0 0 0-.253-.097M40.338 24.848h.887l-.944 3.28h-.945l-.592-2.079-.588 2.08h-.945l-.959-3.28h.882l.588 2.36.602-2.36h.935l.578 2.321.501-2.322M45.877 24.84v.607h-1.225v.705h1.08v.608h-1.08v.761h1.225v.608h-2.049v-3.29h2.049M49.745 26.97h.8l-.4-1.168-.4 1.168Zm1.195 1.159-.188-.551h-1.215l-.187.55h-.877l1.175-3.288h1.003l1.17 3.289h-.881ZM55.257 25.456v.79h.51a.403.403 0 0 0 .297-.108.38.38 0 0 0 .109-.283.388.388 0 0 0-.11-.287.393.393 0 0 0-.295-.112h-.511Zm0 1.397v1.276h-.823v-3.28h1.334c.392 0 .697.097.915.293a.922.922 0 0 1 .328.711c0 .19-.06.375-.178.556-.119.18-.313.308-.583.384l.829 1.336h-.964l-.762-1.276h-.096"></path>
                                    </svg>