<svg xmlns="http://www.w3.org/2000/svg" width="67" height="34" fill="none">
                                        <path fill="currentColor" d="M17.87 15.346 9.932 3.963v6.614c0 1.696.105 4.579 3.18 4.579v.19H6.415v-.19c2.907 0 3.327-2.905 3.327-4.58V3.71l-.99-1.42C7.49.613 6.669.634 6.123.591V.423h6.716l7.159 10.409v-5.66c0-1.972-.674-4.58-3.011-4.58V.423h6.38v.17c-2.611 0-3.18 2.607-3.18 4.578v10.175H17.87M36.586 11.192v4.154H24.29v-.19c.885 0 1.222-1.272 1.222-2.714V3.348c0-1.314-.295-2.756-1.222-2.756V.423h12.023v4.345h-.189c0-4.133-5.749-4.154-5.749-4.154h-.757v7.1h1.705c.021 0 2.253.065 2.485-2.5h.19v5.193h-.19c-.232-2.543-2.464-2.501-2.485-2.501h-1.705v7.25h.757s6.022.233 6.022-3.964h.19M61.832.423v.17c-.843 0-2.127.656-3.664 4.387l-3.685 10.366h-.758c-1.958-4.6-3.221-7.567-4.063-9.497l-3.37 9.497h-.758C40.228 2.86 39.954 2.31 39.954 2.31 39.238.614 38.944.635 38.397.592V.423h6.569v.17c-1.348 0-.274 2.458-.274 2.458l3.18 7.272 1.684-4.728a319.075 319.075 0 0 0-1.41-3.285C47.428.614 47.133.635 46.585.592V.423h6.57v.17c-1.347 0-.273 2.458-.273 2.458l3.159 7.293 1.894-5.364C58.463 3.476 58 .592 55.851.592V.423h5.981M23.987 18.8v.169c-.843 0-2.128.657-3.665 4.388l-3.684 10.366h-.759c-1.958-4.6-3.22-7.568-4.064-9.497l-3.369 9.497h-.758c-5.305-12.486-5.58-13.037-5.58-13.037-.715-1.695-1.01-1.674-1.557-1.717v-.17h6.57v.17c-1.349 0-.275 2.459-.275 2.459l3.18 7.271 1.684-4.728a318.702 318.702 0 0 0-1.41-3.285c-.717-1.695-1.01-1.674-1.559-1.717v-.17h6.57v.17c-1.348 0-.274 2.459-.274 2.459l3.158 7.292 1.895-5.363c.527-1.505.064-4.388-2.084-4.388v-.17h5.98ZM28.28 24.65l-1.873 4.77h3.979l-2.105-4.77Zm2.127-5.85h.106c5.327 12.295 5.684 12.994 5.684 12.994.758 1.696 1.475 1.717 1.895 1.76v.17h-7.369v-.17c1.685 0 .421-2.48.421-2.48l-.674-1.463h-4.127c-.421.976-.042 3.943 2.485 3.943v.17h-6.064v-.17c.631-.043 1.768-.212 3.39-3.943L30.407 18.8M52.935 18.8v.17c-.905 0-2.253.656-3.895 4.387l-4.148 10.366h-.61c-5.644-12.486-5.939-13.036-5.939-13.036-.758-1.696-1.074-1.675-1.663-1.718V18.8h7.011v.17c-1.453 0-.294 2.458-.294 2.458l3.264 7.313 2.169-5.384c.631-1.568.252-4.388-2.275-4.388V18.8h6.38M66.303 29.57v4.153H54.006v-.19c.885 0 1.222-1.273 1.222-2.714v-9.094c0-1.314-.296-2.756-1.222-2.756V18.8h12.023v4.345h-.19c0-4.133-5.748-4.154-5.748-4.154h-.758v7.101h1.706c.021 0 2.253.064 2.484-2.502h.19v5.194h-.19c-.23-2.543-2.463-2.502-2.484-2.502h-1.706v7.25h.758s6.022.234 6.022-3.963h.19"></path>
                                    </svg>