<svg xmlns="http://www.w3.org/2000/svg" width="72" height="48" fill="none">
                                        <path fill="currentColor" d="M2.043 30.14 0 7.276l8.01-.716c2.775-.248 4.927.098 6.457 1.038 1.53.93 2.385 2.42 2.569 4.472.1 1.12-.1 2.135-.599 3.045-.5.9-1.245 1.594-2.236 2.083 1.2.189 2.174.698 2.923 1.528.76.829 1.198 1.887 1.313 3.175.196 2.198-.356 3.926-1.658 5.182-1.302 1.256-3.25 2.01-5.846 2.263l-8.89.794Zm3.823-10.377.551 6.172 4.037-.36c1.11-.1 1.95-.439 2.521-1.018.58-.59.83-1.35.746-2.282-.187-2.094-1.366-3.06-3.536-2.898l-4.32.386Zm-.298-3.329 3.487-.311c2.373-.255 3.477-1.308 3.311-3.161-.092-1.037-.463-1.753-1.11-2.149-.638-.407-1.606-.553-2.905-.437l-3.298.295.515 5.763ZM32.137 27.452c-.246-.39-.443-.884-.592-1.483-.99 1.323-2.364 2.063-4.124 2.22-1.664.15-3.09-.209-4.275-1.074-1.175-.866-1.828-2.031-1.96-3.497-.16-1.8.381-3.242 1.625-4.324 1.254-1.083 3.143-1.742 5.665-1.978l2.09-.187-.088-.973c-.07-.785-.33-1.395-.78-1.83-.44-.436-1.096-.615-1.965-.537-.764.068-1.35.305-1.757.711-.396.405-.566.927-.509 1.565l-4.539.406c-.088-.985.134-1.922.667-2.814.532-.892 1.332-1.623 2.4-2.193 1.067-.58 2.292-.933 3.674-1.056 2.094-.188 3.8.193 5.12 1.14 1.33.937 2.08 2.358 2.25 4.264l.658 7.365c.154 1.61.488 2.81 1.002 3.598l.024.267-4.586.41ZM28.1 24.63a3.982 3.982 0 0 0 1.814-.606c.538-.354.92-.794 1.148-1.321l-.26-2.92-1.697.15c-2.272.204-3.411 1.097-3.418 2.68l.009.269c.05.565.29 1.013.721 1.344.43.33.992.465 1.683.404ZM48.319 21.273c-.05-.555-.366-.964-.95-1.229-.573-.276-1.478-.485-2.715-.628-4.118-.487-6.292-2.023-6.523-4.609-.135-1.507.376-2.82 1.532-3.936 1.166-1.127 2.76-1.782 4.78-1.962 2.157-.193 3.925.161 5.304 1.061 1.389.9 2.156 2.161 2.3 3.784l-4.538.405c-.058-.649-.315-1.164-.772-1.545-.457-.392-1.13-.548-2.02-.469-.765.069-1.341.294-1.729.677a1.642 1.642 0 0 0-.51 1.375c.044.503.317.89.816 1.162.509.26 1.339.455 2.49.585 1.15.118 2.126.285 2.926.498 2.477.665 3.812 2.081 4.005 4.248.139 1.55-.414 2.866-1.658 3.947-1.244 1.072-2.919 1.702-5.024 1.89-1.424.127-2.713-.011-3.868-.414-1.145-.415-2.071-1.034-2.778-1.857-.708-.834-1.108-1.764-1.2-2.79l4.304-.385c.114.803.468 1.394 1.061 1.774.593.38 1.356.527 2.288.444.869-.078 1.509-.298 1.92-.662.42-.375.606-.83.559-1.364ZM60.88 24.884l-4.556.407L54.806 8.3l4.555-.407 1.518 16.99ZM54.145 3.927c-.06-.681.114-1.261.525-1.741.422-.481 1.025-.756 1.81-.827.775-.069 1.413.096 1.913.494.5.399.78.938.84 1.619.063.69-.123 1.277-.555 1.759-.42.48-1.014.755-1.778.824-.765.068-1.402-.097-1.912-.494-.5-.399-.781-.944-.843-1.634ZM69.424 24.12l-4.555.407L62.713.407 67.268 0l2.156 24.12ZM72 31.415c-11.225 2.67-22.592 4.777-34.05 6.216-2.864.366-5.73.705-8.605.99-2.873.28-5.752.507-8.632.701-2.883.163-5.767.296-8.654.366-2.886.064-5.773.044-8.658.038L3.4 39.66l8.641-.43c2.878-.168 5.755-.334 8.627-.566 2.876-.191 5.748-.416 8.617-.693 2.87-.242 5.738-.54 8.601-.864a314.836 314.836 0 0 0 17.12-2.445 338.215 338.215 0 0 0 16.98-3.311l.014.064ZM35.84 44.741l.02.504-1.693.066.033.84 1.52-.06.019.476-1.52.06.033.848 1.747-.068.02.504-2.283.089-.124-3.172 2.228-.087ZM39.791 44.924a.699.699 0 0 0-.374.122.32.32 0 0 0-.129.3.339.339 0 0 0 .17.285c.105.059.322.117.65.172.332.056.585.149.758.279.176.13.274.334.293.612a.83.83 0 0 1-.265.692c-.196.187-.463.293-.802.316a1.93 1.93 0 0 1-1.354-.418l.307-.427c.34.255.681.37 1.026.346a.681.681 0 0 0 .4-.137.35.35 0 0 0 .133-.306.326.326 0 0 0-.165-.275c-.099-.062-.266-.113-.503-.15a5.087 5.087 0 0 1-.54-.117 1.25 1.25 0 0 1-.335-.163c-.198-.129-.307-.34-.327-.633-.021-.293.069-.525.27-.697.202-.175.46-.274.775-.296a1.9 1.9 0 0 1 .61.057c.204.052.382.134.536.244l-.257.424a1.082 1.082 0 0 0-.395-.182 1.477 1.477 0 0 0-.482-.048ZM44.92 44.552l.27 2.67-.533.054-.27-2.67-.959.097-.05-.488 2.45-.248.05.488-.959.097ZM52.788 44.805a5.14 5.14 0 0 0 .374-.578.634.634 0 0 0 .076-.393.418.418 0 0 0-.194-.296.517.517 0 0 0-.384-.078c-.257.04-.45.206-.58.495l-.465-.18c.105-.227.232-.407.38-.537.152-.13.357-.217.617-.258.264-.04.507.007.73.144.224.133.358.343.403.63a.929.929 0 0 1-.053.482c-.061.16-.186.373-.374.638l-.618.864 1.422-.222.08.507-2.145.335-.07-.448.8-1.105ZM57.028 43.016c-.08.237-.087.53-.02.878.067.347.182.617.345.807.166.19.38.26.642.21.262-.051.431-.193.51-.427.08-.238.087-.532.02-.883-.069-.35-.184-.62-.346-.807-.16-.191-.371-.261-.633-.211-.262.05-.434.195-.518.433Zm.015 2.092c-.268-.254-.449-.626-.544-1.116-.094-.49-.064-.902.091-1.234.154-.335.444-.543.87-.625.424-.082.77.003 1.039.257.267.25.448.621.542 1.112.095.49.065.903-.09 1.238-.154.332-.444.539-.87.62-.424.083-.77-.002-1.038-.252ZM61.095 41.458l1.125-.256.706 3.094-.496.114-.6-2.63-.629.143-.106-.465ZM66.51 42.95c.273-.073.45-.218.529-.437.08-.218.08-.485 0-.798a1.17 1.17 0 0 1-.255.316 1.022 1.022 0 0 1-.429.227.992.992 0 0 1-.765-.088c-.234-.136-.39-.354-.47-.655-.081-.305-.047-.575.103-.813a1.12 1.12 0 0 1 .686-.478c.492-.13.89-.001 1.194.388.172.224.3.494.384.81.084.316.12.588.109.816-.012.229-.06.42-.144.574-.165.3-.414.495-.747.584-.33.088-.659.063-.983-.073l.158-.45c.083.04.186.07.31.086a.842.842 0 0 0 .32-.01Zm-.21-1.166a.697.697 0 0 0 .405-.263.49.49 0 0 0 .078-.43.561.561 0 0 0-.278-.358.604.604 0 0 0-.476-.057.619.619 0 0 0-.38.266.511.511 0 0 0-.064.43.587.587 0 0 0 .255.36.565.565 0 0 0 .46.052Z"></path>
                                    </svg>