<svg xmlns="http://www.w3.org/2000/svg" width="82" height="51" fill="none">
                                        <path fill="currentColor" d="M4.307 9.777c.768-2.17 5.423-7.954 6.192-8.721.317-.362.678-.544 1.13-.498 6.417-3.434 8.947 9.988 6.01 12.97-.813.904-1.718 1.084-2.802.95-.452-.136-.904-.227-1.356-.317-.226-.045-.316-.136-.316-.361.046-1.13.136-2.305.181-3.435.045-.542.09-1.175.135-1.717.09-1.04.136-2.17.181-3.209v-.362c.497-3.48-2.395-.994-2.485-.27-.09.36-.316.813-.633 1.174-.587.542-.95 1.22-1.265 1.898-.408.994-.904 1.898-1.266 2.848-.543 1.264-.904 2.485-1.085 3.796-.18.994-.316 1.942-.406 2.936-.09.905-.361 1.944-.452 2.893-.045.769.045 1.446.09 2.215.045.361.091.632.136 1.04.723 5.06 2.44 2.259 3.119.451.315-.814.451-1.582.677-2.35.135-.362.135-.633-.045-.994-.362-.723.045-1.447.904-1.808.903-.362 1.852-.451 2.757-.588.993-.135 1.4.452 1.491 1.22 0 .363-.045.814-.226 1.266-1.22 2.803-2.53 7.23-4.157 8.904-.181.09-.317.36-.453.542-.316.542-.723.767-1.265.677a6.06 6.06 0 0 0-1.808 0c-.723.09-1.446-.09-2.124-.361-.316-.046-.587-.046-.86-.046-.224.046-.45 0-.676-.09-.95-.27-1.673-.905-2.305-1.672-.316-.316-.588-.633-.633-1.13-.045-.362-.225-.678-.316-.95-.361-1.083-.407-2.123-.361-3.162 0-.678.135-1.266.27-1.988.272-1.085.497-2.125.814-3.254.316-.904.723-1.944.994-2.847.226-.543.406-1.085.633-1.582h-.181c-.046.09-.136.225-.226.406-.09.181-.225.317-.316.452.723-1.627 1.446-3.298 2.304-4.926Z"></path>
                                        <path fill="#17161A" d="M19.491 24.87a3.935 3.935 0 0 0-.044.725c-.09.09 0 .134.044.225.09.226.272.452.498.543.045 0 .045 0 .09-.045.046-.046.136-.09.18-.136.77-.814 1.311-1.854 1.764-2.893.226-.36.316-.767.451-1.084-1.039-.452-1.535-.045-2.124.723-.496.722-.587 1.13-.859 1.942Zm4.023-8.812c-.09-.541-.181-.948-.316-1.446-.136-.451-.317-.813-.633-1.084-.181-.18-.316-.407-.587-.543a5.362 5.362 0 0 0-.814-.587c-.542-.452-1.537.497-1.853.814-1.22 1.717-.045 4.067 1.085 5.287 1.311 2.576 3.705 1.672 3.163-1.355.09-.363.09-.768-.045-1.085Zm-5.378 1.808c-.498-.813-.723-1.808-.859-2.846-.134-.769.09-1.492.497-2.215.045-.09.136-.18.317-.226.362-.316.814-.588 1.355-.904.408-.27.95-.317 1.446-.227.362 0 1.357.905 1.582 1.086.272.226.543.497.859.678.407.361.678.768.905 1.356.135.361.225.678.406.993.135.408.18.86.27 1.31.046.408.046.724.136 1.085.046.046.046.046.046.137-.136-.723.044.316 0 .451-.046.542.09 1.04-.046 1.537-.135.271.136.588.497.588 2.215-.136 3.074.18 5.243-.182.226-.09.451-.225.723-.361.09-.045.226-.136.316-.181.09.136.046.317 0 .407-.135.225.317.317.136.497-1.356 1.446-5.513 1.4-7.14 1.4h-.136c-.135 0-.271.046-.271.137 0 .09-.045.136-.09.225-.137.769-.543 1.492-.859 2.26-.227.543-.542.949-.859 1.356-.18.27-.361.588-.632.769-.09.045-.181.135-.317.225-.09.045-.226.136-.27.272-.363.406-.77.723-1.266.858-.09 0-.317.09-.453.18-.632.182-1.265.136-1.853.046-.812-.09-1.355-.678-1.807-1.446-.136-.362-.271-.813-.406-1.22-.09-.814-.136-1.627-.046-2.486.09-.858.361-1.672.768-2.485.407-.995.995-1.854 1.673-2.667.135-.045.135-.136.18-.27 0-.047 0-.091-.045-.137Z"></path>
                                        <path fill="#17161A" d="M33.773 9.145c-.09.271-.994 1.627-1.086 1.717-.044.226-.134.542-.36.677 0-.18.044-.27.044-.27.408-.904 1.085-1.718 1.627-2.577-.135-.18-.044-.18-.044-.18.768-.995 1.446-1.808 2.032-2.44.092-.09.363-.181.363-.408.135-.134.135-.134.406-.451-.361.271-.452.317-.677.542-.226.18-.453.27-.634.633a19.629 19.629 0 0 0-3.073 4.565c-.135.586-.27.768-.406 1.174-.136.316-.045.452-.136.723v.136c.272-.452.407-.904.542-1.265.272-.498 1.266-2.034 1.447-2.441l-.045-.135Zm-2.034 2.937c-.452.813-.904 1.898-1.22 2.982v.272c.362-.633.588-1.356.859-1.944.226-.407.36-.858.497-1.4 0 0-.09.045-.136.09Zm-1.356 14.461c-.135.407-.27.86-.406 1.31-.09.272-.136.543-.136.86-.09.451-.227.858-.27 1.265-.091.361-.182.723-.318 1.084.09.317-.09.453-.135.724-.046.18-.136.36-.18.587 0 .407-.136.723-.227 1.175-.045.226-.09.542-.18.814-.09.315-.227.677-.227.994 0 .451-.044.904-.044 1.265 0 .135.044.226.09.362.452.904.768-.272.858-.497.272-.633.09-.317.362-.994.135-.543.317-1.176.497-1.718.09-.36.181-.814.225-1.175.181-1.084.317-2.305.453-3.48.225-1.401.18-1.175.316-2.621.136-2.712-.406-1.04-.542-.361l-.136.406Zm7.864-12.79c.361-.812.768-1.627 1.13-2.349.406-1.04.678-1.988.813-3.209.09-.904-.361-2.621-1.084-1.039-.181.542-.453 1.085-.634 1.627-.316.859-.632 1.763-.994 2.712-.09.36-.27.768-.406 1.22-.317 1.13-.769 2.124-1.175 3.073-.226.632-.453 1.356-.769 1.943-.632 1.492-.271.859-.857 2.395-.227.543-.544 1.401.134 1.582.542-.09 2.125.678 2.531.587.678 0 1.31.407 1.853.227.271-.09.498-.136.678-.181 1.22-.408 0 .135 1.13-.543.542 0 1.536-2.17 2.124-2.124 1.988-1.04.678 1.31-1.13 2.712-.181.136-.678.406-.859.542-4.52 1.627-8.406-1.537-8.134.316.09 1.04.09 2.034.136 2.938 0 .225-.047.406 0 .587-.047.543-.047.949-.047 1.537-.09.27-.134.587-.134.813-.09.362-.226.678-.226 1.04-.046.225-.136.497-.091.813-.09.317-.18.588-.226.995h-.045c.045-.09.045-.136.09-.181 0-.09-.09-.09-.09-.046-.045 0-.09.09-.136.09-.044.046-.044.137-.044.182 0 .27 0 .497-.136.723-.09.361-.226.768-.271 1.084-.227.678-.408 1.311-.723 1.763v.316c0 .362-.182.587-.363.768-.044.09-.09.18-.134.272-.317.767-.588 1.31-.95 1.988-.135.361-.36.542-.633.587-.18-.045-.406.046-.542.046-.09 0-.09.136-.226.09-.135.046-.27.046-.361.09-.316.137-.678 0-.95-.226-.135-.09-.406-.362-.587-.542a2.126 2.126 0 0 1-.587-1.446c-.09-.18-.136-.361-.226-.542-.136-.542-.18-1.175-.18-1.808 0-.632-.046-1.4.043-2.215 0 0 .047-.045.047-.09-.136-.814.09-1.581.226-2.395.27-1.13.542-2.304.858-3.389.045-.317.045-.543.136-.814.045-.271.09-.496.18-.677 0-.272.136-.498.227-.769 0-.09.044-.226.09-.36.18-.544.316-.996.407-1.493.316-1.13.406-1.31 1.04-2.892.044-.226.224-.361.224-.588.181-.903 2.803-6.913 4.7-10.575.091-.135-1.084 1.266-.993 1.13.135-.271 1.445-2.033 1.626-2.305.724-1.174 1.04-1.49 1.447-1.581.316-.317 1.039-.994 1.446-1.31.542-.498 1.762-.86 2.35-.634.18.045.36.136.542.09.678.091 1.176.498 1.627.905 0 .136.18.226.316.407.136.587.588 1.174.407 1.988.271.768.136 1.31-.135 2.079-.634 1.537-1.356 2.937-2.35 4.293-.09.271-.317.452-.588.588-.317.18-.633.27-.994.496.09-.542.271-.948.452-1.31Z"></path>
                                        <path fill="#17161A" d="M45.117 9.145c-.091.271-.994 1.627-1.086 1.717-.044.226-.135.542-.36.677 0-.18.044-.27.044-.27.407-.904 1.085-1.718 1.627-2.577-.135-.18-.044-.18-.044-.18.768-.995 1.445-1.808 2.032-2.44.09-.09.362-.181.362-.408.136-.134.136-.134.407-.451-.361.271-.452.317-.678.542-.225.18-.452.27-.633.633a19.607 19.607 0 0 0-3.073 4.565c-.135.586-.27.768-.407 1.174-.135.316-.044.452-.135.723v.136c.272-.452.407-.904.542-1.265.271-.498 1.266-2.034 1.447-2.441l-.045-.135Zm-2.034 2.937c-.453.813-.905 1.898-1.22 2.982v.272c.36-.633.587-1.356.859-1.944.225-.407.36-.858.496-1.4 0 0-.09.045-.135.09Zm-1.356 14.461c-.135.407-.272.86-.407 1.31-.09.272-.135.543-.135.86-.09.451-.227.858-.272 1.265-.09.361-.18.723-.316 1.084.09.317-.09.453-.136.724-.045.18-.135.36-.18.587 0 .407-.136.723-.226 1.175-.045.226-.09.542-.18.814-.091.315-.227.677-.227.994 0 .451-.046.904-.046 1.265 0 .135.046.226.091.362.452.904.768-.272.859-.497.272-.633.09-.317.361-.994.136-.543.317-1.176.498-1.718.09-.36.181-.814.225-1.175.181-1.084.317-2.305.452-3.48.226-1.401.18-1.175.317-2.621.136-2.712-.407-1.04-.542-.361l-.136.406Zm7.864-12.79c.36-.812.767-1.627 1.13-2.349.405-1.04.677-1.988.813-3.209.09-.904-.361-2.621-1.085-1.039-.181.542-.452 1.085-.633 1.627-.317.859-.633 1.763-.994 2.712-.09.36-.272.768-.407 1.22-.316 1.13-.768 2.124-1.175 3.073-.225.632-.452 1.356-.768 1.943-.632 1.492-.271.859-.859 2.395-.225.543-.542 1.401.136 1.582.542-.09 2.124.678 2.53.587.679 0 1.312.407 1.854.227.271-.09.497-.136.678-.181 1.22-.408 0 .135 1.13-.543.542 0 1.536-2.17 2.123-2.124 1.99-1.04.678 1.31-1.13 2.712-.18.136-.678.406-.858.542-4.52 1.627-8.406-1.537-8.135.316.09 1.04.09 2.034.135 2.938 0 .225-.045.406 0 .587-.045.543-.045.949-.045 1.537a2.77 2.77 0 0 0-.135.813c-.09.362-.226.678-.226 1.04-.045.225-.136.497-.09.813-.09.317-.181.588-.226.995h-.045c.045-.09.045-.136.09-.181 0-.09-.09-.09-.09-.046-.045 0-.09.09-.136.09-.045.046-.045.137-.045.182 0 .27 0 .497-.136.723-.09.361-.226.768-.27 1.084-.227.678-.408 1.311-.724 1.763v.316c0 .362-.18.587-.362.768-.044.09-.09.18-.134.272-.317.767-.589 1.31-.95 1.988-.136.361-.361.542-.633.587-.18-.045-.406.046-.542.046-.09 0-.09.136-.226.09-.136.046-.27.046-.361.09-.317.137-.678 0-.95-.226-.136-.09-.406-.362-.587-.542a2.123 2.123 0 0 1-.588-1.446c-.09-.18-.135-.361-.226-.542-.136-.542-.18-1.175-.18-1.808 0-.632-.046-1.4.044-2.215 0 0 .046-.045.046-.09-.136-.814.09-1.581.226-2.395.27-1.13.543-2.304.859-3.389.045-.317.045-.543.136-.814.044-.271.09-.496.18-.677 0-.272.136-.498.226-.769 0-.09.045-.226.09-.36.181-.544.316-.996.407-1.493.317-1.13.407-1.31 1.04-2.892.044-.226.225-.361.225-.588.181-.903 2.803-6.913 4.7-10.575.091-.135-1.084 1.266-.994 1.13.136-.271 1.446-2.033 1.627-2.305.723-1.174 1.04-1.49 1.447-1.581.315-.317 1.039-.994 1.445-1.31.543-.498 1.762-.86 2.35-.634.18.045.362.136.543.09.678.091 1.175.498 1.627.905 0 .136.18.226.316.407.135.587.588 1.174.407 1.988.271.768.135 1.31-.136 2.079-.633 1.537-1.355 2.937-2.35 4.293-.09.271-.316.452-.587.588-.317.18-.634.27-.995.496.09-.542.271-.948.453-1.31Z"></path>
                                        <path fill="#17161A" d="M71.69 21.798c.315 0 .586-.09.767-.362.271-.36.588-.677.814-1.13.226-.496.496-.993.723-1.536l.271-.633.407-1.58.225-1.22v-.408c0-.136-.135-.18-.27-.09l-.091.09a2.692 2.692 0 0 0-.769 1.22c-.18.588-.406 1.13-.722 1.627-.317.588-.679 1.13-1.04 1.627-.406.588-.722 1.266-1.04 1.898-.044.09-.09.227-.044.362.271.045.497.135.768.135Zm-11.616-6.236c-.451.136-.858.317-1.22.678l-.632.542c-.136.09-.27.226-.361.362-.317.361-.588.722-.86 1.084l-.723 1.085-.09.18c.09.045.136.091.18.091.634.09 1.22.045 1.854-.09.316-.09.588-.271.768-.588.633-.858.994-1.808 1.265-2.847 0-.136.046-.317-.044-.498-.047 0-.09-.044-.137 0Zm-2.71 6.01c-.136-.044-.317-.09-.453-.226-.362-.27-.768-.542-1.039-.95 0-.044-.045-.044-.136-.09-.045.046-.09.046-.09.09-.316.498-.633.95-.768 1.537-.046.046-.046.09-.046.137-.135.452-.09.858.226 1.22.452.542.905 1.038 1.491 1.4.226.227.498.361.769.543.362.316.813.362 1.266.271.903-.136 1.761-.361 2.53-.859.587-.406 1.175-.722 1.763-1.13.451-.316.858-.677 1.265-.993l2.079-1.808c0-.091.045-.18.045-.271.045-.905.452-1.673.859-2.44.858-1.808 2.168-3.345 3.66-4.656a4.59 4.59 0 0 1 1.22-.859c.271-.18.588-.18.904-.09.182.09.452.136.677.226.181.09.363.226.543.361.362.272.724.543 1.085.769.18.136.316.271.36.452.046.181.138.272.273.362.18.09.316.225.452.316.316.27.497.587.677.904.09.27.09.497.09.768-.09.768-.226 1.537-.542 2.26-.09.226-.18.451-.316.632l-.316.633-.904 1.763c-.135.27-.452.542-.633.813-.316.497-.813.723-1.31.95a1.06 1.06 0 0 1-.904 0l-.452-.137c-.271 0-.543-.135-.768-.271-.136-.135-.272-.226-.452-.226-.045 0-.09.045-.09.045-.046.362-.181.679-.181 1.04-.046.859.226 1.627.858 2.214.452.362.95.588 1.537.452.451-.09.859-.18 1.265-.317.317-.09.587-.27.859-.451 1.22-.813 2.44-1.628 3.615-2.486a4.726 4.726 0 0 0 1.085-1.039c.316-.361.678-.723.994-1.13.497-.587.903-1.175 1.22-1.853.136-.181.181-.406.272-.633.136 0 .09.09.09.136v.272c-.09.315-.136.678-.18.993-.046.271-.137.543-.272.814-.227.361-.452.723-.724 1.084-.135.181-.27.362-.315.588-.181.452-.452.858-.769 1.175-.136.135-.271.271-.316.451 0 .047-.09.137-.136.181-.406.317-.813.678-1.31.95-.272.136-.588.36-.86.542-.405.317-.857.587-1.355.723-.542.181-1.084.497-1.581.769a7.858 7.858 0 0 1-3.48 1.084c-.588.045-1.22-.045-1.853-.18-.135-.046-.272-.136-.408-.226-.632-.317-1.084-.814-1.445-1.402a7.02 7.02 0 0 1-.814-2.304c-.044-.18-.09-.362-.09-.542-.045-.09-.045-.226-.045-.317.09-.317 0-.588 0-.904.045-.27 0-.542.045-.858l-.27.27c-.137.136-.272.272-.362.453-.226.225-.407.451-.678.632-.271.226-.542.498-.814.678a18.07 18.07 0 0 1-1.084.859c-.678.542-1.401.993-2.215 1.356-.407.135-.813.315-1.22.361-.452.09-.858.09-1.31.135-.137.046-.271.046-.407.046-.361.09-.768.045-1.13 0-1.13-.227-2.17-.588-3.118-1.266-.814-.632-1.492-1.4-1.944-2.35-.09-.226-.226-.407-.27-.587a4.665 4.665 0 0 1-.317-2.079 7.673 7.673 0 0 1 1.22-3.661c.723-1.22 1.582-2.259 2.712-3.163.407-.362.858-.587 1.31-.813.226-.09.452-.09.678-.181a.856.856 0 0 0 .361-.09c.272-.137.498-.09.724.044l.903.678c.181.09.317.226.498.226.18.046.316.136.451.272l.678.678.317.406c0 .136.135.226.225.272.543.587.904 1.265 1.04 2.078.09.498 0 .995-.136 1.492a9.913 9.913 0 0 1-.587 1.626c-.226.543-.633.995-1.176 1.22a.335.335 0 0 1-.18.091 5.388 5.388 0 0 0-.813.226 2.482 2.482 0 0 1-.814 0l-.045-.045c-.18-.226-.18-.226-.36 0l-.588-.136ZM31.103 47.395a.436.436 0 0 0-.286.092.33.33 0 0 0-.112.268c0 .117.034.21.104.282.069.07.159.126.27.163.111.039.235.075.372.11.136.034.272.075.406.125.136.05.258.11.37.183a.795.795 0 0 1 .27.309c.068.133.104.292.104.478 0 .324-.132.601-.397.833-.263.23-.611.347-1.043.347-.432 0-.779-.104-1.043-.311-.264-.208-.396-.503-.396-.886h.994c.026.307.182.46.47.46.134 0 .24-.036.316-.107a.35.35 0 0 0 .115-.271.361.361 0 0 0-.103-.267.734.734 0 0 0-.27-.164 3.86 3.86 0 0 0-.372-.112 3.613 3.613 0 0 1-.407-.128 2.036 2.036 0 0 1-.369-.184.792.792 0 0 1-.27-.305 1.015 1.015 0 0 1-.104-.473c0-.357.133-.643.398-.858.266-.214.606-.322 1.02-.322.412 0 .747.094 1.002.282.254.187.388.483.398.888h-1.016a.511.511 0 0 0-.133-.32.389.389 0 0 0-.288-.112ZM38.483 46.712h.934v3.834h-.934v-1.59h-1.48v1.59h-.934v-3.834h.934v1.534h1.48v-1.534ZM45.445 49.422c.184-.201.276-.468.276-.804 0-.335-.092-.603-.276-.803-.184-.2-.43-.3-.737-.3-.308 0-.554.1-.738.3-.184.2-.276.468-.276.803 0 .336.092.603.276.803.184.2.43.3.738.3.307 0 .553-.1.737-.3Zm-2.13.605c-.381-.371-.572-.84-.572-1.409 0-.568.191-1.036.572-1.406.38-.37.846-.555 1.398-.555.552 0 1.016.186 1.393.555.376.37.565.838.565 1.406s-.19 1.038-.568 1.41a1.914 1.914 0 0 1-1.392.557c-.55 0-1.016-.186-1.396-.558ZM50.937 48.346h.579a.449.449 0 0 0 .336-.127.45.45 0 0 0 .123-.33.466.466 0 0 0-.126-.336.439.439 0 0 0-.333-.131h-.579v.924Zm1.988-.46c0 .259-.092.508-.278.749a1.042 1.042 0 0 1-.44.303 1.844 1.844 0 0 1-.691.116h-.579v1.492h-.934v-3.834h1.513c.444 0 .79.114 1.038.344.248.23.371.506.371.83Z"></path>
                                    </svg>