<svg xmlns="http://www.w3.org/2000/svg" width="38" height="42" fill="none">
                                    <path stroke="currentColor" stroke-linecap="round" stroke-linejoin="round" stroke-width="2.3" d="m12.559 23.869 12.901 7.562m-.019-20.862L12.56 18.131M36 7.7c0 3.148-2.537 5.7-5.667 5.7s-5.666-2.552-5.666-5.7S27.204 2 30.333 2C33.463 2 36 4.552 36 7.7ZM13.333 21c0 3.148-2.537 5.7-5.666 5.7C4.537 26.7 2 24.148 2 21s2.537-5.7 5.667-5.7 5.666 2.552 5.666 5.7ZM36 34.3c0 3.148-2.537 5.7-5.667 5.7s-5.666-2.552-5.666-5.7 2.537-5.7 5.666-5.7c3.13 0 5.667 2.552 5.667 5.7Z"></path>
                                </svg>